<svg width="147" height="118" viewBox="0 0 147 118" fill="none" xmlns="http://www.w3.org/2000/svg">
<path d="M143.926 0.022934C142.96 -0.039506 141.99 0.0256913 141.041 0.216834C139.001 0.604634 137.073 1.38023 135.181 2.22564C131.586 3.85679 128.091 5.6995 124.714 7.74403C115.264 13.402 106.257 19.7018 97.4921 26.3584C96.7149 26.9401 95.9513 27.5335 95.0712 28.2044C92.7222 26.4593 90.2858 24.8867 87.6356 23.671C84.9906 22.4512 82.2132 21.5403 79.3588 20.9564C76.5049 20.3645 73.5913 20.1093 70.6778 20.1963C67.7021 20.3065 64.7498 20.7666 61.8822 21.5672C59.0723 22.3387 56.3628 23.4365 53.8093 24.8383C51.2479 26.2328 48.8703 27.94 46.7312 29.9204C45.6913 30.8906 44.7024 31.9138 43.7683 32.9859C42.8764 34.0092 42.0422 35.0812 41.2697 36.1969C40.4591 37.3656 39.7126 38.5774 39.0334 39.8267C38.3516 41.0737 37.7437 42.3595 37.2129 43.6776C36.6896 44.9981 36.2421 46.3472 35.8722 47.7185C35.5158 49.0254 35.2362 50.352 35.0348 51.6915C34.8231 53.0914 34.8036 54.5205 34.5938 55.9224C34.384 57.3243 34.5025 58.7572 34.656 60.1707C34.8095 61.5842 34.9086 62.9997 35.1495 64.3958C35.3839 65.7304 35.6999 67.0494 36.0957 68.3455C36.5124 69.7036 36.9987 71.0394 37.5529 72.3476C38.0988 73.6468 38.7555 74.8994 39.385 76.214C39.0703 76.5242 38.8022 76.8054 38.5224 77.0613C37.6131 77.8796 36.6339 78.6319 35.7887 79.5122C32.6509 82.7756 29.5228 86.0467 26.4627 89.3779C22.4311 93.7542 18.5841 98.2973 15.1004 103.12C13.4723 105.377 11.9374 107.692 10.7561 110.222C10.2334 111.341 9.76712 112.493 9.6894 113.726C9.567 115.665 10.3247 116.863 12.3376 117.061C13.3039 117.124 14.2742 117.063 15.2248 116.879C16.8277 116.621 18.3529 116.06 19.8489 115.444C23.7465 113.838 27.4438 111.837 31.0713 109.708C39.6201 104.692 47.7435 99.0438 55.7464 93.2093C56.113 92.9431 56.4795 92.6768 56.8461 92.4105C57.1783 92.1662 57.5222 92.0556 57.9264 92.2437C58.2198 92.3775 58.5228 92.4919 58.8298 92.5966C64.1534 94.4076 69.5684 95.3442 75.232 94.714C78.7953 94.3146 82.2673 93.6185 85.5722 92.2534C96.8684 87.5824 104.244 79.3513 107.803 67.6882C108.734 64.6382 109.023 61.4834 109.256 58.3364C109.336 57.309 109.313 56.2763 109.188 55.2534C108.979 53.5936 108.67 51.9435 108.347 50.3012C108.289 50.085 108.295 49.8568 108.364 49.644C108.433 49.4311 108.562 49.2426 108.736 49.101C110.049 47.8523 111.359 46.6009 112.664 45.3471C120.741 37.5911 128.596 29.6412 135.785 21.0553C138.525 17.7803 141.14 14.4103 143.409 10.7786C144.424 9.2011 145.288 7.53205 145.989 5.7934C146.341 4.88788 146.638 3.9688 146.617 2.97603C146.594 1.2891 145.632 0.145091 143.926 0.022934ZM65.4805 22.2497C64.3147 24.4912 62.4145 26.1878 60.2074 26.9692C59.6595 27.1631 59.0941 27.3163 58.5598 27.5393C57.1434 28.121 55.9077 28.8772 55.624 30.5816C55.5711 30.8729 55.4294 31.141 55.2184 31.3491C55.0074 31.5573 54.7372 31.6955 54.4447 31.745C53.0846 32.0475 51.9791 32.8308 50.8483 33.589C49.8706 34.2319 49.1075 35.1515 48.6567 36.2299C48.4624 36.7049 48.2526 37.18 48.0233 37.6415C47.524 38.6478 46.7448 39.3013 45.5791 39.2218C44.1413 39.1229 43.1213 39.7337 42.2353 40.804C41.5786 41.599 40.8034 42.3087 39.7192 42.5142C39.5373 42.519 39.3553 42.5079 39.1752 42.4812C43.1427 32.7203 54.2329 23.7427 65.4805 22.2497ZM36.6378 65.5553C35.6916 61.6095 35.6041 57.6171 35.9461 53.6169C36.2161 50.4544 37.0477 47.3966 38.2018 44.4319C38.4252 43.8618 38.6856 43.4003 39.385 43.3208C40.9044 43.1502 41.9963 42.2253 42.9251 41.1278C43.607 40.325 44.3473 39.9023 45.4334 39.9644C46.8672 40.0458 47.8892 39.309 48.5654 38.0758C48.9073 37.4534 49.257 36.8329 49.5699 36.195C50.3878 34.5274 51.8431 33.6064 53.4557 32.8599C53.6903 32.7494 53.9376 32.668 54.1921 32.6175C55.4802 32.3635 56.271 31.6112 56.4731 30.3121C56.5113 30.0553 56.6116 29.8117 56.7653 29.6022C56.919 29.3928 57.1214 29.2238 57.3551 29.1099C58.1459 28.6814 58.9464 28.2238 59.7993 27.9639C62.248 27.2558 64.3545 25.6823 65.7253 23.5372C66.4733 22.3912 67.4739 21.7572 68.9175 21.6719C75.4379 21.2841 81.6922 22.2536 87.5929 25.1291C90.0219 26.3382 92.3173 27.7978 94.4417 29.4841C97.7034 32.0338 100.503 35.1228 102.719 38.6168C103.274 39.4855 103.77 40.3968 104.252 41.312C104.895 42.5355 104.885 42.553 103.945 43.4565C103.292 44.0828 102.608 44.6781 101.949 45.2986C93.3381 53.4172 84.4337 61.2236 75.401 68.8671C68.2459 74.9284 60.936 80.8017 53.4712 86.4868C53.0108 86.8378 52.527 87.1597 51.9655 87.561C51.3826 87.1732 50.7706 86.8223 50.2168 86.3976C43.2288 81.0499 38.7024 74.1024 36.6378 65.5553ZM98.6714 31.3804C101.298 29.4221 103.723 27.5955 106.165 25.7981C111.162 22.114 116.212 18.5191 121.514 15.2809C123.772 13.9004 126.107 12.6458 128.441 11.4029C129.288 10.9492 130.228 10.6642 131.136 10.3287C131.441 10.227 131.757 10.1619 132.078 10.1348C132.719 10.0611 133.125 10.4858 132.921 11.0578C132.69 11.7248 132.407 12.373 132.076 12.9968C131.704 13.6739 131.281 14.322 130.811 14.9358C129.56 16.5801 128.319 18.2321 126.995 19.8182C123.974 23.4422 120.757 26.8897 117.423 30.2287C113.999 33.6588 110.543 37.054 107.092 40.455C106.688 40.8525 106.235 41.1976 105.701 41.6571C104.978 40.36 104.364 39.1636 103.659 38.0235C102.954 36.8833 102.178 35.7509 101.366 34.667C100.554 33.5831 99.6623 32.5826 98.6714 31.3804ZM50.5569 88.4122C50.4617 88.5712 50.4053 88.769 50.2732 88.8679C44.1064 93.4634 37.856 97.9366 31.1587 101.745C29.8123 102.511 28.425 103.207 27.0183 103.856C26.2494 104.193 25.4489 104.453 24.6285 104.632C23.7989 104.826 23.3365 104.314 23.6318 103.544C23.8877 102.815 24.2164 102.114 24.613 101.45C25.4465 100.145 26.3131 98.8557 27.2573 97.6322C30.024 94.0509 33.055 90.6983 36.1948 87.4331C37.6714 85.8961 39.1461 84.3578 40.6188 82.8182C41.2432 82.1732 41.9409 81.6032 42.6977 81.1197C44.0014 82.4576 45.2138 83.7994 46.535 85.0248C47.7979 86.2018 49.1793 87.2624 50.5569 88.4122ZM104.972 72.3399C99.9324 82.9501 91.743 89.7792 80.3224 92.6703C78.7059 93.0794 77.0195 93.2365 75.366 93.4847C75.0649 93.5293 74.7443 93.442 74.2877 93.4052C74.7327 92.393 75.3155 91.6601 76.1491 91.1521C76.9194 90.6844 77.7227 90.2729 78.5524 89.9208C79.4013 89.604 80.1898 89.145 80.884 88.5635C82.3411 87.2527 84.0354 86.3433 85.817 85.5503C87.3481 84.8658 88.8519 84.1154 90.3246 83.3146C91.6944 82.5681 92.9204 81.6529 93.7014 80.2122C93.9987 79.6674 94.5272 79.2233 95.0187 78.8181C96.3159 77.7495 97.7421 76.8473 99.264 76.1326C100.507 75.5509 101.634 74.8102 102.425 73.6565C102.682 73.2842 102.866 72.8615 103.14 72.5086C103.415 72.1558 103.73 71.8363 104.079 71.5565C104.428 71.2754 105.12 71.2521 105.134 71.4596C105.153 71.7618 105.098 72.0641 104.972 72.3399ZM106.066 69.6253C105.856 70.2535 105.483 70.5482 104.794 70.5599C103.742 70.5793 102.977 71.1571 102.412 72.0141C102.305 72.1751 102.202 72.3399 102.101 72.5066C101.402 73.6801 100.347 74.6 99.0872 75.132C97.4302 75.87 95.8895 76.8445 94.5136 78.025C93.9071 78.5016 93.3822 79.0733 92.9592 79.7178C92.3211 80.7734 91.4087 81.637 90.3188 82.2171C88.677 83.1168 87.0314 84.0204 85.3255 84.7883C83.6196 85.5561 81.9584 86.4364 80.5381 87.6851C79.8608 88.2845 79.0818 88.7585 78.2377 89.0851C76.4638 89.7851 74.892 90.774 73.8681 92.457C73.769 92.6218 73.6213 92.7556 73.5106 92.9146C73.3725 93.1346 73.1773 93.3131 72.9457 93.4312C72.7141 93.5494 72.4547 93.6027 72.1952 93.5855C70.6409 93.5215 69.0865 93.5681 67.5458 93.378C64.9126 93.0643 62.3249 92.4468 59.8343 91.5379C59.5429 91.4313 59.267 91.2762 59.0338 91.1656C59.0139 91.0785 59.0047 90.9893 59.0066 90.9C59.026 90.8378 59.0632 90.7825 59.1135 90.741C75.7682 78.3314 91.5312 64.8689 106.909 50.9353C106.946 50.9004 107.034 50.9217 107.284 50.9042C107.409 51.7496 107.547 52.5078 107.626 53.2698C107.811 55.0634 108.108 56.857 108.106 58.6505C108.091 62.4219 107.263 66.0711 106.066 69.633V69.6253ZM144.88 4.75216C144.578 5.67227 144.206 6.56756 143.765 7.42991C142.719 9.51434 141.408 11.4417 140.023 13.3128C136.984 17.4177 133.685 21.3054 130.281 25.1155C124.804 31.2467 119.012 37.0695 113.117 42.7856C108.755 47.0127 104.24 51.0865 99.7653 55.1952C93.8607 60.6244 87.7638 65.8345 81.597 70.9632C73.9846 77.2921 66.2615 83.4814 58.3014 89.3662C55.4919 91.441 52.7543 93.6049 49.871 95.5536C47.0343 97.479 44.2365 99.4665 41.3921 101.371C36.7718 104.473 32.0486 107.409 27.1777 110.096C24.6415 111.526 22.0209 112.801 19.3302 113.914C18.011 114.442 16.6631 114.895 15.2928 115.271C14.4814 115.485 13.6449 115.588 12.8059 115.578C11.3739 115.578 10.8532 114.949 10.9795 113.482C11.0119 112.967 11.124 112.46 11.3117 111.979C11.8172 110.721 12.3905 109.491 13.0293 108.295C14.8692 105.016 17.158 102.038 19.5167 99.1214C23.0936 94.6966 26.8901 90.4598 30.8576 86.3802C33.5168 83.6462 36.1766 80.9129 38.8371 78.1802C39.15 77.8583 39.4919 77.5655 39.9796 77.1098L41.6991 79.6557C41.6182 79.8518 41.5159 80.0385 41.394 80.2122C38.0308 83.8789 34.6424 87.5261 31.2908 91.2083C28.9673 93.7284 26.8247 96.4089 24.8792 99.2299C24.1933 100.242 23.626 101.336 23.0256 102.404C22.7158 102.977 22.5744 103.626 22.6176 104.275C22.6487 105.051 23.148 105.65 23.9116 105.722C24.3596 105.776 24.814 105.742 25.2483 105.619C26.4178 105.269 27.5677 104.858 28.6931 104.386C31.8329 102.98 34.7512 101.165 37.584 99.2357C41.8066 96.3609 45.989 93.4259 50.1314 90.4308C58.0857 84.6506 65.7564 78.502 73.3027 72.2042C79.261 67.2287 85.1629 62.1873 91.0085 57.08C94.5233 54.026 97.9331 50.8519 101.364 47.701C108.082 41.5298 114.581 35.1356 120.862 28.5185C124.11 25.0903 127.273 21.5866 130.116 17.8074C131.087 16.518 131.963 15.1568 132.836 13.8034C133.402 12.9338 133.804 11.9686 134.023 10.955C134.081 10.7344 134.089 10.5037 134.047 10.2795C134.005 10.0554 133.914 9.84314 133.781 9.65799C133.648 9.47284 133.475 9.31932 133.275 9.20836C133.076 9.0974 132.854 9.03172 132.626 9.01602C132.176 8.98871 131.725 9.03057 131.287 9.14011C129.822 9.45423 128.464 10.065 127.133 10.734C124.548 12.0673 122.041 13.5446 119.622 15.1588C112.682 19.6883 106.068 24.6599 99.5438 29.7672C99.2368 30.0057 98.9434 30.2597 98.6345 30.4963C98.3256 30.7328 98.0225 30.7813 97.7505 30.5389C97.1812 30.029 96.5264 29.6004 96.064 28.8811C96.4293 28.5553 96.7402 28.2296 97.0977 27.9678C105.464 21.8716 113.894 15.8704 122.744 10.4877C126.836 7.99998 131.011 5.66155 135.389 3.70122C137.157 2.90145 138.987 2.24712 140.862 1.74477C141.867 1.48422 142.913 1.4184 143.943 1.55087C144.674 1.63812 145.119 2.1093 145.109 2.85775C145.126 3.49703 145.049 4.13536 144.88 4.75216V4.75216Z" fill="black"/>
<path d="M108.096 58.6505C108.096 62.4218 107.263 66.0671 106.066 69.633C105.856 70.2612 105.483 70.5559 104.794 70.5676C103.742 70.587 102.977 71.1648 102.411 72.0218C102.305 72.1828 102.202 72.3476 102.101 72.5143C101.402 73.6878 100.346 74.6077 99.0872 75.1397C97.4301 75.8777 95.8895 76.8522 94.5135 78.0327C93.9071 78.5093 93.3821 79.081 92.9592 79.7255C92.3211 80.781 91.4087 81.6447 90.3187 82.2248C88.677 83.1245 87.0313 84.0281 85.3254 84.7959C83.6195 85.5638 81.9584 86.4441 80.5381 87.6928C79.8601 88.2894 79.0811 88.7608 78.2377 89.085C76.4638 89.785 74.8919 90.7739 73.868 92.4569C73.7689 92.6217 73.6213 92.7555 73.5105 92.9145C73.3724 93.1345 73.1772 93.313 72.9456 93.4312C72.714 93.5493 72.4547 93.6026 72.1952 93.5854C70.6408 93.5214 69.0865 93.568 67.5457 93.378C64.9126 93.0642 62.3248 92.4467 59.8343 91.5378C59.5428 91.4312 59.267 91.2761 59.0338 91.1655C59.0138 91.0785 59.0047 90.9892 59.0066 90.8999C59.026 90.8377 59.0631 90.7824 59.1135 90.7409C75.7682 78.3313 91.5311 64.8688 106.909 50.9352C106.946 50.9003 107.034 50.9216 107.284 50.9042C107.409 51.7496 107.547 52.5077 107.626 53.2698C107.801 55.0633 108.098 56.8569 108.096 58.6505Z" fill="#EE6FBB"/>
<path d="M103.95 43.4566C103.298 44.0829 102.614 44.6781 101.955 45.2986C93.3382 53.4172 84.4338 61.2236 75.4011 68.8672C68.246 74.9285 60.9361 80.8017 53.4714 86.4869C53.0109 86.8378 52.5271 87.1597 51.9656 87.5611C51.3827 87.1733 50.7707 86.8223 50.217 86.3977C43.2302 81.0499 38.7045 74.1025 36.6398 65.5554C35.6936 61.6095 35.6062 57.6171 35.9481 53.6169C36.2182 50.4544 37.0498 47.3966 38.2039 44.4319C38.4273 43.8618 38.6877 43.4003 39.3871 43.3208C40.9065 43.1502 41.9984 42.2253 42.9271 41.1278C43.6091 40.3251 44.3493 39.9024 45.4354 39.9644C46.8693 40.0459 47.8913 39.3091 48.5674 38.0758C48.9094 37.4534 49.2591 36.8329 49.5719 36.195C50.3899 34.5275 51.8451 33.6064 53.4578 32.8599C53.6924 32.7495 53.9397 32.6681 54.1941 32.6176C55.4823 32.3635 56.2731 31.6112 56.4751 30.3121C56.5134 30.0553 56.6137 29.8117 56.7673 29.6022C56.921 29.3928 57.1235 29.2238 57.3572 29.1099C58.148 28.6814 58.9485 28.2238 59.8014 27.964C62.25 27.2559 64.3565 25.6823 65.7273 23.5372C66.4753 22.3913 67.476 21.7572 68.9195 21.6719C75.44 21.2841 81.6943 22.2536 87.5949 25.1291C90.0239 26.3382 92.3194 27.7978 94.4437 29.4841C97.7047 32.034 100.504 35.123 102.719 38.6168C103.274 39.4855 103.77 40.3968 104.252 41.312C104.901 42.5355 104.891 42.553 103.95 43.4566Z" fill="#EE6FBB"/>
<path d="M104.972 72.3399C99.9325 82.9501 91.7431 89.7792 80.3226 92.6703C78.7061 93.0794 77.0196 93.2365 75.3662 93.4847C75.065 93.5293 74.7444 93.442 74.2878 93.4052C74.7328 92.393 75.3157 91.6601 76.1492 91.152C76.9196 90.6844 77.7228 90.2729 78.5526 89.9208C79.4014 89.604 80.1899 89.145 80.8841 88.5635C82.3413 87.2527 84.0355 86.3433 85.8172 85.5503C87.3482 84.8658 88.852 84.1154 90.3248 83.3146C91.6945 82.5681 92.9205 81.6529 93.7016 80.2122C93.9989 79.6673 94.5273 79.2233 95.0189 78.8181C96.3161 77.7495 97.7423 76.8473 99.2642 76.1326C100.508 75.5509 101.635 74.8101 102.425 73.6564C102.682 73.2842 102.866 72.8615 103.14 72.5086C103.415 72.1558 103.73 71.8362 104.079 71.5565C104.428 71.2754 105.12 71.2521 105.134 71.4596C105.153 71.7618 105.098 72.0641 104.972 72.3399Z" fill="#F0E77B"/>
<path d="M145.111 2.85971C145.128 3.49843 145.05 4.13609 144.88 4.75217C144.578 5.67228 144.206 6.56758 143.765 7.42993C142.719 9.51435 141.408 11.4417 140.023 13.3129C136.984 17.4177 133.685 21.3054 130.281 25.1155C124.804 31.2467 119.012 37.0695 113.117 42.7857C108.755 47.0127 104.24 51.0865 99.7652 55.1953C93.8607 60.6245 87.7638 65.8345 81.5969 70.9632C73.9846 77.2921 66.2615 83.4814 58.3013 89.3662C55.4918 91.441 52.7542 93.6049 49.8709 95.5536C47.0343 97.479 44.2365 99.4665 41.392 101.371C36.7717 104.473 32.0485 107.409 27.1776 110.096C24.6415 111.526 22.0208 112.801 19.3301 113.914C18.0109 114.442 16.663 114.895 15.2927 115.271C14.4814 115.485 13.6448 115.588 12.8058 115.578C11.3738 115.578 10.8531 114.949 10.9794 113.482C11.0118 112.967 11.1239 112.46 11.3117 111.979C11.8171 110.721 12.3904 109.491 13.0292 108.295C14.8692 105.016 17.1579 102.038 19.5166 99.1214C23.0936 94.6966 26.89 90.4598 30.8575 86.3802C33.5167 83.6462 36.1766 80.9129 38.8371 78.1802C39.1499 77.8583 39.4918 77.5655 39.9795 77.1098L41.699 79.6557C41.6181 79.8518 41.5158 80.0385 41.394 80.2122C38.0308 83.8789 34.6423 87.5261 31.2908 91.2083C28.9672 93.7284 26.8247 96.4089 24.8791 99.2299C24.1933 100.242 23.6259 101.336 23.0256 102.404C22.7157 102.977 22.5743 103.626 22.6175 104.275C22.6486 105.051 23.148 105.65 23.9115 105.722C24.3595 105.776 24.814 105.742 25.2483 105.619C26.4177 105.269 27.5676 104.858 28.6931 104.386C31.8328 102.98 34.7511 101.165 37.5839 99.2358C41.8065 96.3609 45.989 93.4259 50.1313 90.4308C58.0856 84.6506 65.7563 78.502 73.3026 72.2042C79.2609 67.2287 85.1629 62.1873 91.0085 57.08C94.5232 54.026 97.9331 50.8519 101.364 47.701C108.082 41.5298 114.581 35.1357 120.862 28.5185C124.11 25.0903 127.273 21.5866 130.116 17.8075C131.087 16.518 131.963 15.1568 132.836 13.8034C133.402 12.9338 133.804 11.9686 134.023 10.955C134.081 10.7344 134.089 10.5037 134.047 10.2796C134.005 10.0554 133.914 9.84315 133.781 9.658C133.647 9.47285 133.475 9.31933 133.275 9.20837C133.076 9.09741 132.854 9.03174 132.626 9.01603C132.176 8.98873 131.724 9.03058 131.287 9.14013C129.822 9.45424 128.464 10.065 127.133 10.734C124.548 12.0673 122.041 13.5446 119.622 15.1588C112.682 19.6883 106.068 24.6599 99.5437 29.7672C99.2368 30.0057 98.9434 30.2597 98.6344 30.4963C98.3255 30.7328 98.0224 30.7813 97.7504 30.5389C97.1811 30.029 96.5264 29.6005 96.064 28.8811C96.4292 28.5553 96.7401 28.2296 97.0976 27.9678C105.464 21.8716 113.894 15.8704 122.744 10.4877C126.836 7.99999 131.011 5.66156 135.389 3.70123C137.157 2.90146 138.987 2.24714 140.862 1.74478C141.867 1.48423 142.913 1.41841 143.943 1.55088C144.672 1.63038 145.117 2.10156 145.111 2.85971Z" fill="#F0E77B"/>
<path d="M65.4805 22.2496C64.3148 24.4911 62.4146 26.1877 60.2074 26.9692C59.6595 27.1631 59.0941 27.3162 58.5598 27.5392C57.1435 28.1209 55.9077 28.8771 55.6241 30.5815C55.5711 30.8729 55.4295 31.1409 55.2185 31.3491C55.0075 31.5573 54.7373 31.6955 54.4447 31.7449C53.0847 32.0474 51.9792 32.8308 50.8484 33.5889C49.8707 34.2319 49.1076 35.1514 48.6568 36.2298C48.4625 36.7049 48.2526 37.1799 48.0234 37.6414C47.524 38.6478 46.7449 39.3012 45.5792 39.2217C44.1414 39.1228 43.1214 39.7336 42.2354 40.8039C41.5787 41.5989 40.8035 42.3086 39.7193 42.5141C39.5374 42.5189 39.3553 42.5079 39.1753 42.4812C43.1427 32.7202 54.233 23.7427 65.4805 22.2496Z" fill="#F0E77B"/>
<path d="M26.4782 43.441C26.4335 42.6655 26.3286 41.9034 26.2237 41.1395C25.8593 38.2994 24.505 35.6779 22.3981 33.7344C19.95 31.4212 17.022 30.219 12.5202 30.1783C11.032 30.1512 8.61303 30.8046 6.46027 32.2317C1.66902 35.4097 -0.501226 39.8752 0.0971943 45.6244C0.433169 48.5734 1.78354 51.3149 3.91815 53.3815C6.05276 55.4482 8.83948 56.7121 11.8033 56.9578C16.3536 57.3456 20.2103 55.7207 23.2024 52.2887C25.3902 49.7835 26.6822 46.8614 26.4782 43.441ZM16.0486 31.4658C18.4889 32.0223 20.6436 33.0849 22.3398 35.0898C21.4946 36.0593 20.5542 36.1291 19.5633 36.1446C18.653 36.1887 17.7605 35.8819 17.0706 35.2876C16.5363 34.8241 16.0078 34.351 15.5162 33.8469C15.3344 33.6635 15.1911 33.4457 15.0947 33.2063C14.9982 32.9669 14.9507 32.7107 14.9547 32.4527C14.9508 31.7702 15.4035 31.3184 16.0486 31.4658V31.4658ZM3.29913 36.6235C3.85675 35.9216 4.42991 35.2313 5.0361 34.5721C5.47521 34.0912 6.0678 34.0524 6.63902 34.2754C7.24132 34.5139 7.48613 35.0258 7.47836 35.6618C7.47836 35.7258 7.47836 35.7898 7.47836 36.1349C7.4667 37.4922 5.82105 38.7991 4.35608 38.3492C3.92208 38.2136 3.55603 37.9183 3.33216 37.5232C3.15341 37.2285 3.07958 36.8989 3.29913 36.6235V36.6235ZM23.3559 50.0472C21.6792 52.5446 19.439 54.2956 16.5557 55.2205C10.2917 57.2234 4.11127 53.8438 1.94491 48.5755C0.429433 44.8914 0.645097 41.3023 2.59968 37.7171C3.5828 38.7681 4.65529 39.5185 6.03088 38.9387C7.21801 38.4404 8.07678 37.4883 8.1681 36.1543C8.23804 35.018 7.92717 33.9516 6.47581 33.5599C6.73302 33.3355 7.00219 33.1252 7.28212 32.9297C9.2639 31.7024 11.4652 31.2797 13.7559 31.206C14.2242 31.1905 14.5331 31.4387 14.4981 31.8749C14.2553 34.2773 15.796 35.5687 17.5874 36.5634C18.7531 37.2091 20.0957 37.0424 21.3431 36.5634C21.8754 36.3579 22.3767 36.0748 22.9421 35.8033C24.5839 37.5911 25.225 39.6813 25.2036 42.0896C24.8403 42.2835 24.3818 42.5142 23.9563 42.7876C23.082 43.3499 22.4525 44.6587 22.8741 45.8435C23.1752 46.6908 23.2627 47.6157 23.6143 48.4417C23.8766 49.0893 23.6901 49.547 23.3559 50.0472V50.0472ZM24.4168 48.178C24.0826 47.1077 23.9058 46.4329 23.6571 45.7775C23.4992 45.421 23.456 45.0243 23.5336 44.6423C23.6112 44.2602 23.8058 43.9117 24.0903 43.6446C24.449 43.3153 24.8265 43.0071 25.2211 42.7217C25.6311 44.6103 25.0016 46.1479 24.4187 48.178H24.4168Z" fill="black"/>
<path d="M7.47847 35.6618C7.47847 35.7258 7.47847 35.7898 7.47847 36.135C7.46681 37.4923 5.82115 38.7992 4.35618 38.3493C3.92218 38.2137 3.55613 37.9184 3.33226 37.5233C3.15545 37.2286 3.08162 36.8989 3.30117 36.6236C3.85879 35.9217 4.43196 35.2314 5.03815 34.5721C5.47725 34.0912 6.06985 34.0525 6.64107 34.2755C7.24143 34.514 7.48624 35.0258 7.47847 35.6618Z" fill="#F0E77B"/>
<path d="M22.3399 35.0898C21.4947 36.0593 20.5543 36.1291 19.5634 36.1446C18.6531 36.1887 17.7606 35.8818 17.0707 35.2875C16.5364 34.8241 16.0079 34.351 15.5163 33.8469C15.3345 33.6635 15.1912 33.4457 15.0948 33.2063C14.9983 32.9669 14.9508 32.7107 14.9548 32.4527C14.9548 31.7702 15.4075 31.3184 16.0526 31.4658C18.489 32.0223 20.6437 33.0848 22.3399 35.0898Z" fill="#F0E77B"/>
<path d="M24.4188 48.178C24.0846 47.1077 23.9078 46.4329 23.6591 45.7775C23.5012 45.421 23.4581 45.0243 23.5357 44.6423C23.6133 44.2602 23.8078 43.9117 24.0924 43.6446C24.451 43.3153 24.8286 43.0071 25.2232 42.7217C25.6312 44.6103 25.0017 46.1479 24.4188 48.178Z" fill="#F0E77B"/>
<path d="M23.9447 42.7818C24.3702 42.5084 24.8288 42.2854 25.1921 42.0837C25.2135 39.6813 24.5723 37.5853 22.9305 35.7975C22.3651 36.069 21.8639 36.3521 21.3315 36.5576C20.0841 37.0365 18.7377 37.2033 17.5758 36.5576C15.7844 35.5629 14.2437 34.2715 14.4866 31.8691C14.5293 31.4328 14.2126 31.1846 13.7444 31.2001C11.4537 31.2738 9.25233 31.6965 7.27055 32.9239C6.99061 33.1193 6.72145 33.3297 6.46423 33.5541C7.9156 33.9419 8.22647 35.0122 8.15652 36.1485C8.07492 37.4825 7.21614 38.4346 6.0193 38.9329C4.64371 39.5146 3.57121 38.7622 2.58809 37.7113C0.63351 41.3023 0.417846 44.8856 1.93333 48.5697C4.09969 53.838 10.2879 57.2176 16.5441 55.2146C19.4294 54.2897 21.6696 52.5388 23.3444 50.0414C23.6786 49.5411 23.8651 49.0835 23.5911 48.4301C23.2472 47.6041 23.152 46.685 22.8509 45.8318C22.4409 44.6529 23.0704 43.3441 23.9447 42.7818ZM10.0081 52.3391C9.37289 52.4229 8.75545 52.6089 8.17983 52.8898C7.43764 53.2369 6.78287 52.977 6.37291 52.2809C5.66763 51.0865 6.04456 49.9192 7.36575 49.5082C8.04391 49.3071 8.75216 49.2264 9.45828 49.2697C9.88306 49.2935 10.2832 49.4766 10.5786 49.7821C10.8739 50.0877 11.0428 50.4933 11.0515 50.9178C11.0651 51.6333 10.6784 52.2557 10.0081 52.3391V52.3391ZM19.7674 47.2182C19.0272 47.8814 18.0188 48.3002 16.9696 47.5459C16.4567 47.1775 15.8311 46.9642 15.254 46.685C13.894 46.0257 13.5054 45.2637 13.6997 43.7203C13.8338 42.71 14.7528 41.7502 15.8758 41.535C16.2509 41.4475 16.6442 41.4815 16.9988 41.632C17.7429 42.0372 18.5531 42.363 19.1477 43.0048C19.9112 43.1735 20.0006 43.9103 20.2745 44.4435C20.8205 45.4828 20.6204 46.4504 19.7674 47.2182V47.2182Z" fill="#F0E77B"/>
<path d="M20.2821 44.4434C20.0082 43.9102 19.9188 43.1734 19.1553 43.0047C18.5607 42.3629 17.7505 42.0352 17.0064 41.6319C16.6518 41.4814 16.2585 41.4474 15.8834 41.5349C14.7604 41.7501 13.8413 42.71 13.7073 43.7202C13.4994 45.2714 13.9016 46.0256 15.2616 46.6849C15.8445 46.9661 16.4643 47.1774 16.9772 47.5458C18.0264 48.3001 19.0348 47.8813 19.775 47.2181C20.6202 46.4503 20.8203 45.4827 20.2821 44.4434ZM18.8949 47.0688C18.7025 47.1889 18.4806 47.2537 18.2537 47.2561C18.0268 47.2585 17.8036 47.1984 17.6087 47.0824C16.9325 46.7121 16.2311 46.3882 15.5589 46.0121C15.2174 45.8324 14.9029 45.6059 14.6243 45.3392C14.4668 45.1769 14.3444 44.9839 14.2648 44.7722C14.1852 44.5606 14.1502 44.3348 14.1618 44.1091C14.1735 43.8833 14.2316 43.6624 14.3326 43.4601C14.4336 43.2577 14.5752 43.0783 14.7487 42.9329C15.6152 42.169 16.5284 41.9363 17.5718 42.6111C18.0497 42.9194 18.5724 43.1676 19.1747 43.0745C19.4001 43.6446 19.6449 44.2069 19.8411 44.7866C20.1597 45.7445 19.8022 46.5628 18.8949 47.0688Z" fill="black"/>
<path d="M18.8949 47.0689C18.7025 47.189 18.4807 47.2539 18.2537 47.2562C18.0268 47.2586 17.8036 47.1985 17.6087 47.0825C16.9326 46.7122 16.2312 46.3884 15.5589 46.0122C15.2175 45.8325 14.9029 45.6061 14.6244 45.3394C14.4668 45.177 14.3444 44.984 14.2648 44.7723C14.1852 44.5607 14.1502 44.335 14.1619 44.1092C14.1735 43.8835 14.2317 43.6625 14.3326 43.4602C14.4336 43.2578 14.5752 43.0784 14.7487 42.9331C15.6153 42.1691 16.5285 41.9364 17.5718 42.6112C18.0498 42.9195 18.5724 43.1677 19.1747 43.0746C19.4001 43.6447 19.6449 44.207 19.8412 44.7867C20.1598 45.7446 19.8023 46.5629 18.8949 47.0689Z" fill="#F0E77B"/>
<path d="M9.45825 49.2697C8.75407 49.2271 8.04784 49.3078 7.37154 49.5082C6.05035 49.9193 5.67343 51.0866 6.37871 52.281C6.78867 52.9771 7.44343 53.2369 8.18563 52.8898C8.76125 52.6089 9.37868 52.4229 10.0139 52.3391C10.6842 52.2558 11.0709 51.6334 11.0514 50.9179C11.0428 50.4934 10.8739 50.0878 10.5785 49.7822C10.2831 49.4766 9.88303 49.2936 9.45825 49.2697V49.2697ZM10.1286 51.5286C9.29893 51.8292 8.44598 52.0638 7.60275 52.3042C7.47536 52.3082 7.35093 52.2655 7.25303 52.184C6.4914 51.6721 6.52831 50.499 7.33269 50.1306C7.73571 49.9378 8.16222 49.7983 8.60142 49.7157C8.95009 49.6442 9.31256 49.6869 9.63496 49.8375C9.95736 49.9881 10.2225 50.2384 10.3909 50.5514C10.4541 50.6888 10.5048 50.8315 10.5424 50.978C10.4297 51.1525 10.319 51.4666 10.1286 51.5286Z" fill="black"/>
<path d="M10.5366 50.9856C10.42 51.1524 10.319 51.4665 10.1286 51.5363C9.29896 51.8368 8.44602 52.0715 7.60279 52.3119C7.4754 52.3159 7.35097 52.2731 7.25307 52.1917C6.49144 51.6798 6.52836 50.5067 7.33273 50.1383C7.73575 49.9455 8.16226 49.806 8.60145 49.7233C8.95012 49.6518 9.3126 49.6946 9.635 49.8451C9.95739 49.9957 10.2225 50.2461 10.3909 50.559C10.4521 50.6966 10.5009 50.8394 10.5366 50.9856V50.9856Z" fill="#F0E77B"/>
</svg>
